<svg xmlns="http://www.w3.org/2000/svg" width="250" height="250" viewBox="0 0 250 250">
  <g id="Grupo_34" data-name="Grupo 34" transform="translate(-1961 -1981)">
    <g id="Grupo_33" data-name="Grupo 33" transform="translate(-1378 894)">
      <g id="prato" transform="translate(3339 1087)">
        <circle id="Elipse_14" data-name="Elipse 14" cx="125" cy="125" r="125" fill="#f0f0f0"/>
        <path id="Caminho_50" data-name="Caminho 50" d="M81.806,0A81.957,81.957,0,1,1,0,81.957,81.882,81.882,0,0,1,81.806,0Z" transform="translate(43.056 43.135)" fill="#cdcdcd"/>
        <g id="Grupo_32" data-name="Grupo 32" transform="translate(68.889 60.365)">
          <path id="Caminho_46" data-name="Caminho 46" d="M271.672,258.639a14.859,14.859,0,0,1-11.1-4.9,13.677,13.677,0,0,1-3.445-10.62l3.1-69.34a22.311,22.311,0,0,1-11.47-15.55,51.288,51.288,0,0,1,1.425-23.724l2.764-9.114a19.752,19.752,0,0,1,37.424,0l2.764,9.114a51.289,51.289,0,0,1,1.425,23.724,22.306,22.306,0,0,1-11.466,15.55l3.113,69.629a13.492,13.492,0,0,1-3.444,10.331,14.859,14.859,0,0,1-11.087,4.9Zm0-138.033a10.807,10.807,0,0,0-10.471,7.307l-2.764,9.119a42.613,42.613,0,0,0-1.184,19.7,13.669,13.669,0,0,0,8.934,10.305,4.313,4.313,0,0,1,2.786,4.232L265.725,243.8a5.184,5.184,0,0,0,1.266,4.193,6.643,6.643,0,0,0,9.36,0,5,5,0,0,0,1.292-3.908l-3.272-72.817a4.313,4.313,0,0,1,2.786-4.232,13.669,13.669,0,0,0,8.934-10.305,42.662,42.662,0,0,0-1.18-19.7l-2.764-9.119a10.808,10.808,0,0,0-10.475-7.307Z" transform="translate(-183.407 -111.955)" fill="#f0f0f0"/>
          <path id="Caminho_47" data-name="Caminho 47" d="M151.681,258.66a14.566,14.566,0,0,1-14.545-14.588q0-.357.018-.712l3.673-73.584-11.565-11.59a4.317,4.317,0,0,1-1.262-3.05V116.314a4.306,4.306,0,1,1,8.611,0v37.036l11.655,11.677a4.319,4.319,0,0,1,1.262,3.265l-3.767,75.487a5.882,5.882,0,0,0,1.628,4.4,6.054,6.054,0,0,0,8.574.038l.038-.038a5.882,5.882,0,0,0,1.628-4.4l-3.793-75.487a4.319,4.319,0,0,1,1.257-3.265l11.66-11.677V116.314a4.306,4.306,0,1,1,8.611,0v38.822a4.317,4.317,0,0,1-1.262,3.05l-11.565,11.59,3.673,73.584a14.569,14.569,0,0,1-13.816,15.282Q152.037,258.66,151.681,258.66Z" transform="translate(-128 -111.976)" fill="#f0f0f0"/>
          <path id="Caminho_48" data-name="Caminho 48" d="M156.306,155.135A4.31,4.31,0,0,1,152,150.822V116.314a4.306,4.306,0,1,1,8.611,0v34.508A4.31,4.31,0,0,1,156.306,155.135Z" transform="translate(-139.083 -111.976)" fill="#f2f2f2"/>
          <path id="Caminho_49" data-name="Caminho 49" d="M180.306,155.135A4.31,4.31,0,0,1,176,150.822V116.314a4.306,4.306,0,1,1,8.611,0v34.508A4.31,4.31,0,0,1,180.306,155.135Z" transform="translate(-150.166 -111.976)" fill="#f2f2f2"/>
        </g>
      </g>
    </g>
  </g>
</svg>
