<svg xmlns="http://www.w3.org/2000/svg" width="250" height="250" viewBox="0 0 250 250">
  <g id="colar_1_" data-name="colar (1)" transform="translate(-1 -0.037)">
    <path id="Caminho_36" data-name="Caminho 36" d="M167.157,31.022a32.272,32.272,0,0,1,9.654,15.043c3.879,11.854,32.668,34.569,66.8,38.276a8.526,8.526,0,0,1,7.111,10.6c-9.4,38.276-47.321,170.646-124.465,170.948h-.517C48.6,265.591,10.672,133.22,1.276,94.944a8.526,8.526,0,0,1,7.111-10.6c34.133-3.707,62.922-26.422,66.8-38.276a32.27,32.27,0,0,1,9.654-15.043h82.315Z" transform="translate(0 -15.856)" fill="#fff"/>
    <path id="Caminho_39" data-name="Caminho 39" d="M254.956,21.589c0,11.9-19.308,21.552-43.1,21.552s-43.1-9.655-43.1-21.552a12.156,12.156,0,0,1,1.939-6.422C176.173,6.416,192.551.037,211.858.037S247.5,6.373,252.972,15.123l.043.043A12.15,12.15,0,0,1,254.956,21.589Z" transform="translate(-85.859)" fill="#e0e0e0"/>
    <path id="Caminho_40" data-name="Caminho 40" d="M256.828,163.334V189.2a4.31,4.31,0,1,1-8.62,0V163.334a4.31,4.31,0,0,1,3.577-4.224,12.433,12.433,0,0,1,.733,4.224,12.421,12.421,0,0,1,.733-4.224A4.31,4.31,0,0,1,256.828,163.334Z" transform="translate(-126.519 -81.401)" fill="#f0c419"/>
    <path id="Caminho_41" data-name="Caminho 41" d="M252.1,242.2a4.31,4.31,0,0,1-4.31-4.311V225.085a4.31,4.31,0,1,0-8.62,0v12.806a4.31,4.31,0,1,1-8.62,0V225.085a12.929,12.929,0,1,1,25.859,0v12.806A4.309,4.309,0,0,1,252.1,242.2Z" transform="translate(-117.483 -108.544)" fill="#f29c1f"/>
    <path id="Caminho_42" data-name="Caminho 42" d="M255.164,286.5l-35.21,36.811a4.309,4.309,0,0,1-7.154,0L181.64,290.727l-4.051-4.224,3.491-4.4,13.748-17.241h43.1Z" transform="translate(-90.377 -135.517)" fill="#e0e0e0"/>
    <path id="Caminho_43" data-name="Caminho 43" d="M237.924,304.485a4.31,4.31,0,0,1-4.31,4.311H181.639l-4.051-4.224,3.491-4.4h52.535A4.31,4.31,0,0,1,237.924,304.485Z" transform="translate(-90.376 -153.586)" fill="#fff"/>
    <ellipse id="Elipse_4" data-name="Elipse 4" cx="13.684" cy="13.686" rx="13.684" ry="13.686" transform="translate(52.756 43.14)" fill="#e0e0e0"/>
    <path id="Caminho_51" data-name="Caminho 51" d="M5.148-1.488c3.571,0,6.465,3.859,6.466,8.62S8.72,15.752,5.149,15.751s-6.465-3.859-6.466-8.62S1.578-1.488,5.148-1.488Z" transform="translate(59.486 61.205) rotate(-116.129)" fill="#fff"/>
    <g id="Grupo_30" data-name="Grupo 30" transform="translate(74.274 43.14)">
      <ellipse id="Elipse_6" data-name="Elipse 6" cx="13.498" cy="13.5" rx="13.498" ry="13.5" transform="translate(0 17.233)" fill="#e0e0e0"/>
      <ellipse id="Elipse_7" data-name="Elipse 7" cx="13.684" cy="13.686" rx="13.684" ry="13.686" transform="translate(97.624)" fill="#e0e0e0"/>
      <ellipse id="Elipse_8" data-name="Elipse 8" cx="13.498" cy="13.5" rx="13.498" ry="13.5" transform="translate(76.446 17.233)" fill="#e0e0e0"/>
      <path id="Caminho_44" data-name="Caminho 44" d="M229.9,154.208a13,13,0,1,1-.732-4.224A12.439,12.439,0,0,1,229.9,154.208Z" transform="translate(-178.179 -115.414)" fill="#e0e0e0"/>
      <path id="Caminho_45" data-name="Caminho 45" d="M282.895,154.278a12.929,12.929,0,1,1-25.859,0,12.421,12.421,0,0,1,.733-4.224,12.929,12.929,0,0,1,25.126,4.224Z" transform="translate(-205.311 -115.484)" fill="#e0e0e0"/>
    </g>
    <g id="Grupo_31" data-name="Grupo 31" transform="translate(71.735 46.617)">
      <path id="Caminho_56" data-name="Caminho 56" d="M5.148-1.488c3.571,0,6.465,3.859,6.466,8.62S8.72,15.752,5.149,15.751s-6.465-3.859-6.466-8.62S1.578-1.488,5.148-1.488Z" transform="translate(10.969 31.833) rotate(-116.129)" fill="#fff"/>
      <path id="Caminho_54" data-name="Caminho 54" d="M5.148-1.488c3.571,0,6.465,3.859,6.466,8.62S8.72,15.752,5.149,15.751s-6.465-3.859-6.466-8.62S1.578-1.488,5.148-1.488Z" transform="translate(84.99 31.825) rotate(-116.129)" fill="#fff"/>
      <path id="Caminho_55" data-name="Caminho 55" d="M5.148-1.488c3.571,0,6.465,3.859,6.466,8.62S8.72,15.752,5.149,15.751s-6.465-3.859-6.466-8.62S1.578-1.488,5.148-1.488Z" transform="translate(106.537 15.527) rotate(-116.129)" fill="#fff"/>
      <path id="Caminho_52" data-name="Caminho 52" d="M4.641-1.341c3.218,0,5.828,3.477,5.828,7.767S7.86,14.191,4.642,14.191s-5.828-3.477-5.828-7.767S1.423-1.341,4.641-1.341Z" transform="translate(36.195 39.487) rotate(-116.129)" fill="#fff"/>
      <path id="Caminho_53" data-name="Caminho 53" d="M4.641-1.341c3.218,0,5.828,3.477,5.828,7.767S7.86,14.191,4.642,14.191s-5.828-3.477-5.828-7.767S1.423-1.341,4.641-1.341Z" transform="translate(62.28 39.943) rotate(-116.129)" fill="#fff"/>
    </g>
  </g>
</svg>
