<svg xmlns="http://www.w3.org/2000/svg" width="512.074" height="512" viewBox="0 0 512.074 512">
  <g id="colar_1_" data-name="colar (1)" transform="translate(-1 -0.037)">
    <path id="Caminho_36" data-name="Caminho 36" d="M341.34,31.022A66.092,66.092,0,0,1,361.114,61.83c7.945,24.276,66.913,70.8,136.828,78.389a17.461,17.461,0,0,1,14.565,21.716c-19.244,78.389-96.927,349.484-254.941,350.1h-1.059c-158.014-.618-235.7-271.713-254.941-350.1a17.462,17.462,0,0,1,14.566-21.716C86.046,132.627,145.015,86.106,152.96,61.83a66.087,66.087,0,0,1,19.774-30.808H341.34Z" fill="#2980ba"/>
    <g id="Grupo_29" data-name="Grupo 29">
      <path id="Caminho_37" data-name="Caminho 37" d="M115.91,345.319A773.037,773.037,0,0,1,63.368,218.025a8.827,8.827,0,1,0-16.772,5.4,789.648,789.648,0,0,0,53.751,130.225,8.828,8.828,0,0,0,15.563-8.333Z" fill="#3b97d3"/>
      <path id="Caminho_38" data-name="Caminho 38" d="M52.8,183.015q-2-7.044-3.646-13.241A8.829,8.829,0,0,0,32.1,174.346c1.121,4.167,2.357,8.669,3.708,13.453a8.827,8.827,0,0,0,8.483,6.444,8.7,8.7,0,0,0,2.4-.335A8.828,8.828,0,0,0,52.8,183.015Z" fill="#3b97d3"/>
    </g>
    <path id="Caminho_39" data-name="Caminho 39" d="M345.313,44.175c0,24.364-39.548,44.138-88.276,44.138s-88.276-19.774-88.276-44.138a24.892,24.892,0,0,1,3.972-13.153C183.944,13.1,217.489.037,257.036.037s73,12.977,84.215,30.9l.088.088A24.88,24.88,0,0,1,345.313,44.175Z" fill="#285680"/>
    <path id="Caminho_40" data-name="Caminho 40" d="M265.864,167.761v52.966a8.828,8.828,0,0,1-17.656,0V167.761a8.827,8.827,0,0,1,7.327-8.651,25.459,25.459,0,0,1,1.5,8.651,25.434,25.434,0,0,1,1.5-8.651A8.827,8.827,0,0,1,265.864,167.761Z" fill="#f0c419"/>
    <path id="Caminho_41" data-name="Caminho 41" d="M274.692,273.692a8.828,8.828,0,0,1-8.828-8.828V238.637a8.828,8.828,0,1,0-17.656,0v26.227a8.828,8.828,0,0,1-17.656,0V238.637a26.483,26.483,0,1,1,52.966,0v26.227A8.825,8.825,0,0,1,274.692,273.692Z" fill="#f29c1f"/>
    <path id="Caminho_42" data-name="Caminho 42" d="M336.485,309.179l-72.121,75.388a8.828,8.828,0,0,1-14.654,0L185.887,317.83l-8.3-8.651,7.15-9,28.16-35.31h88.276Z" fill="#e6e7e8"/>
    <path id="Caminho_43" data-name="Caminho 43" d="M301.175,309a8.828,8.828,0,0,1-8.828,8.828H185.886l-8.3-8.651,7.15-9H292.346A8.828,8.828,0,0,1,301.175,309Z" fill="#fff"/>
    <circle id="Elipse_4" data-name="Elipse 4" cx="28.028" cy="28.028" r="28.028" transform="translate(107.012 88.312)" fill="#90bae1"/>
    <ellipse id="Elipse_5" data-name="Elipse 5" cx="13.241" cy="17.655" rx="13.241" ry="17.655" transform="translate(119.248 129.073) rotate(-116.129)" fill="#b0d3f0"/>
    <g id="Grupo_30" data-name="Grupo 30">
      <circle id="Elipse_6" data-name="Elipse 6" cx="27.648" cy="27.648" r="27.648" transform="translate(151.088 123.605)" fill="#90bae1"/>
      <circle id="Elipse_7" data-name="Elipse 7" cx="28.028" cy="28.028" r="28.028" transform="translate(351.05 88.312)" fill="#90bae1"/>
      <circle id="Elipse_8" data-name="Elipse 8" cx="27.648" cy="27.648" r="27.648" transform="translate(307.672 123.605)" fill="#90bae1"/>
      <path id="Caminho_44" data-name="Caminho 44" d="M257.037,167.761a26.619,26.619,0,1,1-1.5-8.65A25.472,25.472,0,0,1,257.037,167.761Z" fill="#90bae1"/>
      <path id="Caminho_45" data-name="Caminho 45" d="M310,167.761a26.483,26.483,0,0,1-52.966,0,25.434,25.434,0,0,1,1.5-8.651A26.483,26.483,0,0,1,310,167.761Z" fill="#90bae1"/>
    </g>
    <g id="Grupo_31" data-name="Grupo 31">
      <ellipse id="Elipse_9" data-name="Elipse 9" cx="13.241" cy="17.655" rx="13.241" ry="17.655" transform="translate(166.806 164.391) rotate(-116.129)" fill="#b0d3f0"/>
      <ellipse id="Elipse_10" data-name="Elipse 10" cx="13.241" cy="17.655" rx="13.241" ry="17.655" transform="translate(318.423 164.375) rotate(-116.129)" fill="#b0d3f0"/>
      <ellipse id="Elipse_11" data-name="Elipse 11" cx="13.241" cy="17.655" rx="13.241" ry="17.655" transform="translate(362.557 130.996) rotate(-116.129)" fill="#b0d3f0"/>
      <ellipse id="Elipse_12" data-name="Elipse 12" cx="11.935" cy="15.907" rx="11.935" ry="15.907" transform="translate(218.628 179.695) rotate(-116.129)" fill="#b0d3f0"/>
      <ellipse id="Elipse_13" data-name="Elipse 13" cx="11.935" cy="15.907" rx="11.935" ry="15.907" transform="translate(272.058 180.627) rotate(-116.129)" fill="#b0d3f0"/>
    </g>
  </g>
</svg>
