<svg xmlns="http://www.w3.org/2000/svg" width="296.364" height="212.5" viewBox="0 0 296.364 212.5">
  <g id="controle-de-video-game" transform="translate(0 -66.693)">
    <path id="Caminho_95" data-name="Caminho 95" d="M129.548,76.595V75.384a8.829,8.829,0,0,0-8.963-8.691h-16.9a8.829,8.829,0,0,0-8.963,8.691v.6Z" transform="translate(-39.894 0)" fill="#edc963"/>
    <path id="Caminho_96" data-name="Caminho 96" d="M391.939,75.982v-.6a8.829,8.829,0,0,0-8.963-8.691h-16.9a8.83,8.83,0,0,0-8.963,8.691v1.211Z" transform="translate(-150.403)" fill="#c3c3c3"/>
    <path id="Caminho_97" data-name="Caminho 97" d="M391.939,91.6V81.167a52.815,52.815,0,0,0-34.825.612V92.208Z" transform="translate(-150.403 -5.185)" fill="#c3c3c3"/>
    <path id="Caminho_98" data-name="Caminho 98" d="M111.261,83.755a52.4,52.4,0,0,1,18.287,3.268V75.384a8.829,8.829,0,0,0-8.963-8.691h-16.9a8.829,8.829,0,0,0-8.963,8.691V86.411A52.542,52.542,0,0,1,111.261,83.755Z" transform="translate(-39.894 0)" fill="#c3c3c3"/>
    <path id="Caminho_99" data-name="Caminho 99" d="M129.548,92.209V81.781a52.815,52.815,0,0,0-34.825-.612V91.6Z" transform="translate(-39.894 -5.186)" fill="#c3c3c3"/>
    <path id="Caminho_100" data-name="Caminho 100" d="M19.893,283.792c26.844,11.541,39.978-5.759,45.852-22.645l14.2-40.994h0l3.094-3.72s8.758,4.6,16.2,4.6a33.212,33.212,0,0,0,22.82-8.973,2.989,2.989,0,0,1,2.048-.79h48.8a2.989,2.989,0,0,1,2.049.79,33.214,33.214,0,0,0,22.82,8.973c7.44,0,16.2-4.6,16.2-4.6l3.094,3.719,14.191,40.973c5.861,16.9,28.874,30.485,45.859,23.649,10.272-4.134,19.111-16.578,19.111-28.239L276.042,140l-.013.01c-3.386-24.232-24.792-42.914-50.71-42.914a51.77,51.77,0,0,0-37.141,15.5H108.829a51.77,51.77,0,0,0-37.141-15.5c-25.919,0-47.325,18.682-50.71,42.914l-.013-.01L.761,256.653l.02-.116C.32,270.9,9.62,279.658,19.893,283.792Z" transform="translate(-0.321 -13.338)" fill="#f0f0f0"/>
    <g id="Grupo_42" data-name="Grupo 42" transform="translate(0 192.715)">
      <path id="Caminho_101" data-name="Caminho 101" d="M19.572,404.38a30.974,30.974,0,0,1-19.112-23.2l-.02.116a30.613,30.613,0,0,0,19.131,33.517c16.988,6.837,36.394-1.717,42.251-18.624l3.6-10.4C59.55,402.672,36.55,411.212,19.572,404.38Z" transform="translate(0 -330.691)" fill="#c3c3c3"/>
      <path id="Caminho_102" data-name="Caminho 102" d="M463.932,381.176a30.973,30.973,0,0,1-19.112,23.2c-16.985,6.836-40-1.714-45.859-18.615l3.608,10.419c5.856,16.907,25.262,25.461,42.25,18.624a30.613,30.613,0,0,0,19.131-33.517Z" transform="translate(-168.027 -330.691)" fill="#c3c3c3"/>
      <path id="Caminho_103" data-name="Caminho 103" d="M272.351,298.613a3.022,3.022,0,0,0-4.513-1.47,19.828,19.828,0,0,1-12.454,3.847,33.212,33.212,0,0,1-22.82-8.973,2.99,2.99,0,0,0-2.049-.79h-48.8a2.987,2.987,0,0,0-2.049.79,33.214,33.214,0,0,1-22.821,8.973,19.823,19.823,0,0,1-12.453-3.847,3.022,3.022,0,0,0-4.514,1.47l-2.326,6.715a33.533,33.533,0,0,0,42.924-3.673h51.27a33.534,33.534,0,0,0,42.925,3.672Z" transform="translate(-57.934 -291.227)" fill="#c3c3c3"/>
    </g>
    <path id="Caminho_104" data-name="Caminho 104" d="M150.422,255.342c0,5.17,7.124,13.617,12.974,13.617s12.974-8.486,12.974-13.617a14.218,14.218,0,0,0-25.948,0Z" transform="translate(-63.352 -79.081)" fill="#dad8db"/>
    <path id="Caminho_105" data-name="Caminho 105" d="M121.086,159.754h-5.5v-5.329a9.513,9.513,0,0,0-19.016,0v5.329h-5.5a9.224,9.224,0,1,0,0,18.438h5.5v5.329a9.513,9.513,0,0,0,19.016,0v-5.329h5.5a9.224,9.224,0,1,0,0-18.438Z" transform="translate(-34.354 -34.447)" fill="#b3e59f"/>
    <path id="Caminho_106" data-name="Caminho 106" d="M121.086,159.754h-5.5v-5.329a9.513,9.513,0,0,0-19.016,0v5.329h-5.5a9.224,9.224,0,1,0,0,18.438h5.5v5.329a9.513,9.513,0,0,0,19.016,0v-5.329h5.5a9.224,9.224,0,1,0,0-18.438Z" transform="translate(-34.354 -34.447)" fill="#dad8db"/>
    <path id="Caminho_107" data-name="Caminho 107" d="M387.125,134.633a8.348,8.348,0,1,0,8.606,8.344A8.5,8.5,0,0,0,387.125,134.633Z" transform="translate(-159.418 -29.808)" fill="#c4dbf9"/>
    <path id="Caminho_108" data-name="Caminho 108" d="M387.125,134.633a8.348,8.348,0,1,0,8.606,8.344A8.5,8.5,0,0,0,387.125,134.633Z" transform="translate(-159.418 -29.808)" fill="#b3e59f"/>
    <path id="Caminho_109" data-name="Caminho 109" d="M387.125,210.737a8.348,8.348,0,1,0,8.606,8.344A8.5,8.5,0,0,0,387.125,210.737Z" transform="translate(-159.418 -63.198)" fill="#bed8fb"/>
    <path id="Caminho_110" data-name="Caminho 110" d="M433.782,181.029a8.61,8.61,0,1,0-8.606,8.344A8.5,8.5,0,0,0,433.782,181.029Z" transform="translate(-175.444 -46.503)" fill="#edc963"/>
    <path id="Caminho_111" data-name="Caminho 111" d="M357.678,181.029a8.61,8.61,0,1,0-8.606,8.344A8.5,8.5,0,0,0,357.678,181.029Z" transform="translate(-143.392 -46.503)" fill="#df667c"/>
    <path id="Caminho_112" data-name="Caminho 112" d="M199.656,138.817H255.1c5.639,0,11.61-9,11.61-14.1H188.046C188.452,129.819,194.017,138.817,199.656,138.817Z" transform="translate(-79.198 -25.458)" fill="#a6aec4"/>
    <path id="Caminho_113" data-name="Caminho 113" d="M162.619,270.312a14.055,14.055,0,0,1-12.974-8.4,13.211,13.211,0,0,0-1.069,5.214,14.05,14.05,0,0,0,28.086,0,13.222,13.222,0,0,0-1.069-5.214A14.057,14.057,0,0,1,162.619,270.312Z" transform="translate(-62.575 -85.65)" fill="#c8c5c9"/>
    <path id="Caminho_114" data-name="Caminho 114" d="M316.75,255.342c0,5.17,7.124,13.617,12.975,13.617s12.974-8.486,12.974-13.617a14.218,14.218,0,0,0-25.949,0Z" transform="translate(-133.403 -79.081)" fill="#dad8db"/>
    <path id="Caminho_115" data-name="Caminho 115" d="M328.946,270.312a14.056,14.056,0,0,1-12.975-8.4,13.212,13.212,0,0,0-1.069,5.214,14.05,14.05,0,0,0,28.086,0,13.222,13.222,0,0,0-1.069-5.214A14.055,14.055,0,0,1,328.946,270.312Z" transform="translate(-132.625 -85.65)" fill="#c8c5c9"/>
    <path id="Caminho_116" data-name="Caminho 116" d="M254.858,133.6H199.41a11.875,11.875,0,0,1-11.61-8.886h-.34v7.727a11.773,11.773,0,0,0,11.95,11.587h55.447a11.773,11.773,0,0,0,11.95-11.587v-7.727h-.34A11.875,11.875,0,0,1,254.858,133.6Z" transform="translate(-78.951 -25.458)" fill="#959db0"/>
  </g>
</svg>
