<svg xmlns="http://www.w3.org/2000/svg" width="268.229" height="384.842" viewBox="0 0 268.229 384.842">
  <g id="vestir" transform="translate(0)">
    <g id="Grupo_43" data-name="Grupo 43" transform="translate(0 116.064)">
      <path id="Caminho_117" data-name="Caminho 117" d="M164.468,152a9.493,9.493,0,0,0,0,12.217H128V152Zm0,0" transform="translate(-36.688 -152)" fill="silver"/>
      <path id="Caminho_118" data-name="Caminho 118" d="M233.347,152v12.217H196.879s.059,0,0-.06a9.33,9.33,0,0,0,0-12.1l.059-.06Zm0,0" transform="translate(-56.43 -152)" fill="silver"/>
      <path id="Caminho_119" data-name="Caminho 119" d="M8.56,419.695c.4.489,43.772,50.885,125.554,50.885,81.838,0,125.212-50.4,125.61-50.885l4.225-5.375c2.8,8.551,4.28,13.5,4.28,13.5S222.573,482.8,134.114,482.8,0,427.82,0,427.82s1.482-4.948,4.28-13.5Zm0,0" transform="translate(0 -214.019)" fill="#e6e9ed"/>
    </g>
    <path id="Caminho_120" data-name="Caminho 120" d="M144,0h62.777V3.054c0,18.57-14.039,33.6-31.388,33.6C158.1,36.652,144,21.625,144,3.054Zm0,0" transform="translate(-41.274)" fill="#ec87c0"/>
    <path id="Caminho_121" data-name="Caminho 121" d="M144,0h62.777V3.054c0,18.57-14.039,33.6-31.388,33.6C158.1,36.652,144,21.625,144,3.054Zm0,0" transform="translate(-41.274)" fill="silver"/>
    <path id="Caminho_122" data-name="Caminho 122" d="M178.226,151.054A8.129,8.129,0,0,1,184.56,148a8.036,8.036,0,0,1,6.334,3.114,9.33,9.33,0,0,1,0,12.1c.059.06,0,.06,0,.06a8.095,8.095,0,0,1-12.668,0,9.493,9.493,0,0,1,0-12.217Zm0,0" transform="translate(-50.446 -34.991)" fill="#ffce54"/>
    <path id="Caminho_123" data-name="Caminho 123" d="M125.656,0V3.054c0,18.57,14.1,33.6,31.388,33.6,17.349,0,31.388-15.027,31.388-33.6V0h34.3c6.284,0,11.414,5.443,11.414,12.217V48.869a5.935,5.935,0,0,1-5.707,6.109h-19.23l-9.36,61.092v-.006h-36.41l-.059.06a8.036,8.036,0,0,0-6.334-3.114,8.129,8.129,0,0,0-6.334,3.054H114.242v.006l-9.36-61.092H85.707A5.937,5.937,0,0,1,80,48.869V12.217C80,5.443,85.136,0,91.414,0Zm0,0" transform="translate(-22.93)" fill="#fff"/>
    <path id="Caminho_124" data-name="Caminho 124" d="M135.834,412.342c-81.782,0-125.155-50.4-125.554-50.885L6,356.082c10.843-32.864,41.719-125.051,87.032-188.09V168H129.5a8.095,8.095,0,0,0,12.668,0h36.468v-.006c45.313,63.04,76.189,155.227,87.032,188.09l-4.225,5.375c-.4.489-43.772,50.885-125.61,50.885Zm0,0" transform="translate(-1.72 -39.717)" fill="#fff"/>
    <path id="Caminho_125" data-name="Caminho 125" d="M186.854,397.572A2.961,2.961,0,0,1,184,394.518V199.054a2.86,2.86,0,1,1,5.707,0V394.518A2.961,2.961,0,0,1,186.854,397.572Zm0,0" transform="translate(-52.739 -46.339)" fill="silver"/>
    <path id="Caminho_126" data-name="Caminho 126" d="M74.852,375.954a2.562,2.562,0,0,1-.424-.036,3.023,3.023,0,0,1-2.4-3.463c.114-.832,11.941-83.707,51.6-174.695a2.778,2.778,0,0,1,3.8-1.473,3.153,3.153,0,0,1,1.377,4.062c-39.322,90.182-51.015,172.183-51.134,173a2.922,2.922,0,0,1-2.814,2.607Zm0,0" transform="translate(-20.635 -46.339)" fill="silver"/>
    <path id="Caminho_127" data-name="Caminho 127" d="M278.216,375.954a2.922,2.922,0,0,1-2.814-2.607c-.12-.82-11.835-82.866-51.134-173a3.153,3.153,0,0,1,1.377-4.062,2.778,2.778,0,0,1,3.8,1.473c39.662,90.988,51.488,173.862,51.6,174.695a3.019,3.019,0,0,1-2.4,3.463,2.562,2.562,0,0,1-.424.036Zm0,0" transform="translate(-64.204 -46.339)" fill="silver"/>
  </g>
</svg>
