<svg id="prato" xmlns="http://www.w3.org/2000/svg" width="464" height="464" viewBox="0 0 464 464">
  <circle id="Elipse_14" data-name="Elipse 14" cx="232" cy="232" r="232" fill="#f8cf26"/>
  <circle id="Elipse_15" data-name="Elipse 15" cx="152" cy="152" r="152" transform="translate(80 80)" fill="#ff931e"/>
  <g id="Grupo_32" data-name="Grupo 32">
    <path id="Caminho_46" data-name="Caminho 46" d="M292,384a27.632,27.632,0,0,1-20.624-9.088,25.335,25.335,0,0,1-6.4-19.7l5.752-128.6a41.385,41.385,0,0,1-21.312-28.84,94.952,94.952,0,0,1,2.648-44l5.136-16.9a36.72,36.72,0,0,1,69.536,0l5.136,16.9a94.952,94.952,0,0,1,2.648,44,41.376,41.376,0,0,1-21.3,28.84L319,355.752a24.993,24.993,0,0,1-6.4,19.16A27.632,27.632,0,0,1,292,384Zm0-256a20.079,20.079,0,0,0-19.456,13.552l-5.136,16.912a78.891,78.891,0,0,0-2.2,36.528,25.366,25.366,0,0,0,16.6,19.112,8,8,0,0,1,5.176,7.848l-6.032,134.52a9.6,9.6,0,0,0,2.352,7.776,12.359,12.359,0,0,0,17.392,0A9.255,9.255,0,0,0,303.1,357l-6.08-135.048a8,8,0,0,1,5.176-7.848,25.366,25.366,0,0,0,16.6-19.112,78.984,78.984,0,0,0-2.192-36.528l-5.136-16.912A20.079,20.079,0,0,0,292,128Z" fill="#f2f2f2"/>
    <path id="Caminho_47" data-name="Caminho 47" d="M172,384a27.04,27.04,0,0,1-27.025-27.055q0-.662.033-1.321l6.824-136.472-21.488-21.5A8,8,0,0,1,128,192V120a8,8,0,0,1,16,0v68.688l21.656,21.656A8,8,0,0,1,168,216.4l-7,140a10.9,10.9,0,0,0,3.024,8.152,11.264,11.264,0,0,0,15.93.07l.07-.07a10.9,10.9,0,0,0,3.024-8.152L176,216.4a8,8,0,0,1,2.336-6.056L200,188.688V120a8,8,0,0,1,16,0v72a8,8,0,0,1-2.344,5.656l-21.488,21.5,6.824,136.472a27.039,27.039,0,0,1-25.671,28.343Q172.661,384,172,384Z" fill="#f2f2f2"/>
    <path id="Caminho_48" data-name="Caminho 48" d="M160,192a8,8,0,0,1-8-8V120a8,8,0,0,1,16,0v64A8,8,0,0,1,160,192Z" fill="#f2f2f2"/>
    <path id="Caminho_49" data-name="Caminho 49" d="M184,192a8,8,0,0,1-8-8V120a8,8,0,0,1,16,0v64A8,8,0,0,1,184,192Z" fill="#f2f2f2"/>
  </g>
</svg>
