<svg xmlns="http://www.w3.org/2000/svg" width="237.217" height="160" viewBox="0 0 237.217 160">
  <g id="Grupo_40" data-name="Grupo 40" transform="translate(-2472 -1290)">
    <path id="Caminho_16" data-name="Caminho 16" d="M238.217,36.5c0,30.51-17.1,55.172-38.261,55.172H4.826L1,86.15v-33.1H226.738C233.09,53.052,238.217,45.659,238.217,36.5Z" transform="translate(2471 1358.328)" fill="#e0e0e0"/>
    <path id="Caminho_17" data-name="Caminho 17" d="M238.217,105.776v16.552c0,9.159-5.127,16.552-11.478,16.552H1V50.6C1,38.41,7.849,28.534,16.3,28.534H20.13v11.09c0,15.228,8.57,27.586,19.13,27.586h15.3v-.055C73.581,67.155,89,44.976,89,17.5l23.033,13.628,14.156,8.392,14.156,8.386L154.54,56.3,168.7,64.683Z" transform="translate(2471 1272.5)" fill="#fff"/>
    <g id="Grupo_27" data-name="Grupo 27" transform="translate(2483.486 1438.965)">
      <path id="Caminho_18" data-name="Caminho 18" d="M7.828,44.5C5.712,44.5,4,46.966,4,50.017v5.517h7.652V50.017C11.654,46.966,9.944,44.5,7.828,44.5Z" transform="translate(-4.002 -44.5)" fill="#ccd1d9"/>
      <path id="Caminho_19" data-name="Caminho 19" d="M11.826,44.5C9.71,44.5,8,46.966,8,50.017v5.517h7.652V50.017C15.652,46.966,13.942,44.5,11.826,44.5Z" transform="translate(7.297 -44.5)" fill="#ccd1d9"/>
      <path id="Caminho_20" data-name="Caminho 20" d="M15.824,44.5C13.708,44.5,12,46.966,12,50.017v5.517H19.65V50.017C19.65,46.966,17.94,44.5,15.824,44.5Z" transform="translate(18.595 -44.5)" fill="#ccd1d9"/>
      <path id="Caminho_21" data-name="Caminho 21" d="M19.822,44.5C17.706,44.5,16,46.966,16,50.017v5.517h7.652V50.017C23.648,46.966,21.938,44.5,19.822,44.5Z" transform="translate(29.894 -44.5)" fill="#ccd1d9"/>
      <path id="Caminho_22" data-name="Caminho 22" d="M23.82,44.5c-2.116,0-3.826,2.466-3.826,5.517v5.517h7.652V50.017C27.646,46.966,25.936,44.5,23.82,44.5Z" transform="translate(41.193 -44.5)" fill="#ccd1d9"/>
      <path id="Caminho_23" data-name="Caminho 23" d="M27.818,44.5c-2.116,0-3.826,2.466-3.826,5.517v5.517h7.652V50.017C31.644,46.966,29.934,44.5,27.818,44.5Z" transform="translate(52.491 -44.5)" fill="#ccd1d9"/>
      <path id="Caminho_24" data-name="Caminho 24" d="M31.816,44.5c-2.116,0-3.826,2.466-3.826,5.517v5.517h7.652V50.017C35.642,46.966,33.932,44.5,31.816,44.5Z" transform="translate(63.79 -44.5)" fill="#ccd1d9"/>
      <path id="Caminho_25" data-name="Caminho 25" d="M35.814,44.5c-2.116,0-3.826,2.466-3.826,5.517v5.517H39.64V50.017C39.64,46.966,37.93,44.5,35.814,44.5Z" transform="translate(75.088 -44.5)" fill="#ccd1d9"/>
      <path id="Caminho_26" data-name="Caminho 26" d="M39.812,44.5c-2.116,0-3.826,2.466-3.826,5.517v5.517h7.652V50.017C43.638,46.966,41.928,44.5,39.812,44.5Z" transform="translate(86.387 -44.5)" fill="#ccd1d9"/>
      <path id="Caminho_27" data-name="Caminho 27" d="M43.81,44.5c-2.116,0-3.826,2.466-3.826,5.517v5.517h7.652V50.017C47.636,46.966,45.926,44.5,43.81,44.5Z" transform="translate(97.686 -44.5)" fill="#ccd1d9"/>
      <path id="Caminho_28" data-name="Caminho 28" d="M47.808,44.5c-2.116,0-3.826,2.466-3.826,5.517v5.517h7.652V50.017C51.634,46.966,49.924,44.5,47.808,44.5Z" transform="translate(108.984 -44.5)" fill="#ccd1d9"/>
      <path id="Caminho_29" data-name="Caminho 29" d="M51.806,44.5c-2.116,0-3.826,2.466-3.826,5.517v5.517h7.652V50.017C55.632,46.966,53.922,44.5,51.806,44.5Z" transform="translate(120.283 -44.5)" fill="#ccd1d9"/>
      <path id="Caminho_30" data-name="Caminho 30" d="M55.805,44.5c-2.116,0-3.826,2.466-3.826,5.517v5.517h7.652V50.017C59.631,46.966,57.917,44.5,55.805,44.5Z" transform="translate(131.585 -44.5)" fill="#ccd1d9"/>
    </g>
    <g id="Grupo_28" data-name="Grupo 28" transform="translate(2472 1301.542)">
      <path id="Caminho_31" data-name="Caminho 31" d="M30.385,40.679a2.839,2.839,0,0,0,1.442.4c1.511,0,2.942-1.3,3.547-3.437L39.281,23.78l-3.551-2.1L32.2,19.592c0,.006,0,.006,0,.006L28.284,33.49C27.485,36.309,28.426,39.531,30.385,40.679Z" transform="translate(75.303 -19.592)" fill="#e0e0e0"/>
      <path id="Caminho_32" data-name="Caminho 32" d="M34.1,42.126a2.816,2.816,0,0,0,1.439.4c1.511,0,2.942-1.3,3.547-3.443L42.964,25.3l-3.551-2.1-3.528-2.091s0,.006,0,.006L31.987,34.937c-.8,2.825.149,6.041,2.108,7.189Z" transform="translate(85.775 -12.73)" fill="#e0e0e0"/>
      <path id="Caminho_33" data-name="Caminho 33" d="M37.8,43.574a2.839,2.839,0,0,0,1.442.4c1.511,0,2.942-1.3,3.547-3.437l3.868-13.716-3.554-2.1-3.528-2.091L35.693,36.38c-.8,2.825.145,6.047,2.1,7.194Z" transform="translate(96.245 -5.864)" fill="#e0e0e0"/>
      <path id="Caminho_34" data-name="Caminho 34" d="M41.5,45.031a2.839,2.839,0,0,0,1.442.4c1.511,0,2.942-1.3,3.547-3.437l3.849-13.655-3.52-2.086-3.562-2.108L39.4,37.831C38.6,40.661,39.548,43.883,41.5,45.031Z" transform="translate(106.719 0.989)" fill="#e0e0e0"/>
      <path id="Caminho_35" data-name="Caminho 35" d="M50.507,27.78l-3.566-2.113L43.1,39.289c-.8,2.825.145,6.047,2.1,7.194a2.839,2.839,0,0,0,1.442.4c1.511,0,2.942-1.3,3.547-3.437l3.83-13.589Z" transform="translate(117.189 7.85)" fill="#e0e0e0"/>
      <ellipse id="Elipse_3" data-name="Elipse 3" cx="3.826" cy="5.517" rx="3.826" ry="5.517" transform="translate(0 137.423)" fill="#e6e9ed"/>
    </g>
  </g>
</svg>
