<svg xmlns="http://www.w3.org/2000/svg" width="350" height="350" viewBox="0 0 350 350">
  <g id="smart-car" transform="translate(0 -0.5)">
    <path id="Caminho_969" data-name="Caminho 969" d="M276.487,235.711h-.235V216.818a94.984,94.984,0,0,0-94.84-94.911H140.324a94.984,94.984,0,0,0-94.84,94.911v19.6A54.263,54.263,0,0,0,0,289.905V314.4a30.469,30.469,0,0,0,30.423,30.448H319.578A30.469,30.469,0,0,0,350,314.4v-5.123a73.622,73.622,0,0,0-73.513-73.565Zm0,0" transform="translate(0 -38.352)" fill="#cdcdcd"/>
    <path id="Caminho_970" data-name="Caminho 970" d="M426.062,309.278v5.12a30.47,30.47,0,0,1-30.425,30.448H240.394V121.9h17.079a94.986,94.986,0,0,1,94.838,94.917v18.888h.243a73.623,73.623,0,0,1,73.508,73.571Zm0,0" transform="translate(-76.062 -38.35)" fill="#f0f0f0"/>
    <path id="Caminho_971" data-name="Caminho 971" d="M184.986,158.537V238.9a6.367,6.367,0,0,1-6.363,6.371h-75.46A6.367,6.367,0,0,1,96.8,238.9V226.381a74.184,74.184,0,0,1,74.156-74.212h7.669a6.366,6.366,0,0,1,6.363,6.368Zm0,0" transform="translate(-30.627 -47.911)" fill="#edf0f5"/>
    <path id="Caminho_972" data-name="Caminho 972" d="M336.585,226.38V238.9a6.367,6.367,0,0,1-6.366,6.371H262.434a6.367,6.367,0,0,1-6.363-6.371V158.535a6.366,6.366,0,0,1,6.363-6.368,74.266,74.266,0,0,1,74.151,74.212Zm0,0" transform="translate(-81.022 -47.911)" fill="#cdcdcd"/>
    <path id="Caminho_973" data-name="Caminho 973" d="M341.488,361.23a51.611,51.611,0,1,0,51.574,51.613,51.653,51.653,0,0,0-51.574-51.613Zm0,0" transform="translate(-91.73 -113.952)" fill="#fff"/>
    <path id="Caminho_974" data-name="Caminho 974" d="M106.07,361.23a51.611,51.611,0,1,0,51.574,51.613A51.653,51.653,0,0,0,106.07,361.23Zm0,0" transform="translate(-17.243 -113.952)" fill="#fff"/>
    <path id="Caminho_975" data-name="Caminho 975" d="M181.52,412.843a51.65,51.65,0,0,1-51.574,51.61V361.23a51.651,51.651,0,0,1,51.574,51.613Zm0,0" transform="translate(-41.115 -113.953)" fill="#edf0f5"/>
    <path id="Caminho_976" data-name="Caminho 976" d="M416.931,412.843a51.65,51.65,0,0,1-51.571,51.61V361.23a51.65,51.65,0,0,1,51.571,51.613Zm0,0" transform="translate(-115.602 -113.953)" fill="#cdcdcd"/>
    <g id="Grupo_201" data-name="Grupo 201" transform="translate(233.132 0.5)">
      <path id="Caminho_977" data-name="Caminho 977" d="M377.1,148.326a10.349,10.349,0,0,1-10.345-10.352,15.4,15.4,0,0,0-15.373-15.384,10.351,10.351,0,0,1,0-20.7,36.114,36.114,0,0,1,36.06,36.087A10.348,10.348,0,0,1,377.1,148.326Zm0,0" transform="translate(-341.039 -32.528)" fill="#cdcdcd"/>
      <path id="Caminho_978" data-name="Caminho 978" d="M414.01,127.432a10.35,10.35,0,0,1-10.345-10.352A45.218,45.218,0,0,0,358.516,71.9a10.352,10.352,0,0,1,0-20.7,65.939,65.939,0,0,1,65.839,65.888,10.35,10.35,0,0,1-10.345,10.352Zm0,0" transform="translate(-343.296 -16.514)" fill="#cdcdcd"/>
      <path id="Caminho_979" data-name="Caminho 979" d="M450.923,106.539a10.349,10.349,0,0,1-10.345-10.352A75.042,75.042,0,0,0,365.65,21.2a10.351,10.351,0,0,1,0-20.7,95.759,95.759,0,0,1,95.615,95.687,10.348,10.348,0,0,1-10.342,10.352Zm0,0" transform="translate(-345.553 -0.5)" fill="#cdcdcd"/>
    </g>
    <path id="Caminho_980" data-name="Caminho 980" d="M137.35,430.3a13.792,13.792,0,1,1-13.792-13.8A13.8,13.8,0,0,1,137.35,430.3Zm0,0" transform="translate(-34.73 -131.412)" fill="#40374e"/>
    <path id="Caminho_981" data-name="Caminho 981" d="M372.768,430.3a13.792,13.792,0,1,1-13.792-13.8A13.8,13.8,0,0,1,372.768,430.3Zm0,0" transform="translate(-109.218 -131.412)" fill="#40374e"/>
    <path id="Caminho_982" data-name="Caminho 982" d="M143.737,430.3a13.8,13.8,0,0,1-13.792,13.8V416.5a13.8,13.8,0,0,1,13.792,13.8Zm0,0" transform="translate(-41.115 -131.412)" fill="#25212c"/>
    <path id="Caminho_983" data-name="Caminho 983" d="M379.148,430.3a13.791,13.791,0,0,1-13.789,13.8V416.5a13.8,13.8,0,0,1,13.789,13.8Zm0,0" transform="translate(-115.602 -131.412)" fill="#25212c"/>
    <path id="Caminho_984" data-name="Caminho 984" d="M397.043,142.649a10.343,10.343,0,1,1-20.687,0,15.309,15.309,0,0,0-4.985-11.317L386,116.688a36,36,0,0,1,11.039,25.961Zm0,0" transform="translate(-117.504 -36.703)" fill="#f0f0f0"/>
    <path id="Caminho_985" data-name="Caminho 985" d="M443.7,125.791a10.345,10.345,0,1,1-20.689,0,45.074,45.074,0,0,0-13.7-32.394l14.62-14.628A65.692,65.692,0,0,1,443.7,125.791Zm0,0" transform="translate(-129.507 -24.725)" fill="#f0f0f0"/>
    <path id="Caminho_986" data-name="Caminho 986" d="M490.347,108.932a10.343,10.343,0,1,1-20.687,0,74.773,74.773,0,0,0-22.433-53.454l14.62-14.631A95.419,95.419,0,0,1,490.347,108.932Zm0,0" transform="translate(-141.505 -12.745)" fill="#f0f0f0"/>
  </g>
</svg>
