<svg xmlns="http://www.w3.org/2000/svg" width="284.698" height="188.561" viewBox="0 0 284.698 188.561">
  <g id="XMLID_52_" transform="translate(0 -72.216)">
    <path id="XMLID_1995_" d="M253.582,349.108H211.34c-4.617,0-8.361,3.453-8.361,7.713v29.546c0,4.26,3.743,7.713,8.361,7.713h42.243c4.617,0,8.361-3.453,8.361-7.713V356.821C261.943,352.562,258.2,349.108,253.582,349.108Z" transform="translate(-90.112 -134.847)" fill="#cbcbcb"/>
    <g id="XMLID_2000_" transform="translate(8.361 79.929)">
      <path id="XMLID_2001_" d="M15.036,87.252H283.013V229.3H15.036Z" transform="translate(-15.036 -87.252)" fill="#cbcbcb"/>
    </g>
    <g id="XMLID_88_" transform="translate(142.349 214.261)">
      <path id="XMLID_2003_" d="M277.121,349.108H256v44.973h21.121c4.617,0,8.361-3.453,8.361-7.713V356.821C285.482,352.561,281.739,349.108,277.121,349.108Z" transform="translate(-256 -349.108)" fill="#f0f0f0"/>
    </g>
    <g id="Grupo_41" data-name="Grupo 41" transform="translate(142.349 79.929)">
      <path id="XMLID_2007_" d="M256,87.252H389.989V229.3H256Z" transform="translate(-256 -87.252)" fill="#f0f0f0"/>
    </g>
    <g id="XMLID_1996_" transform="translate(81.951 245.35)">
      <path id="XMLID_1997_" d="M259.816,425.139H155.741c-4.617,0-8.361-3.453-8.361-7.713s3.743-7.713,8.361-7.713H259.816c4.617,0,8.361,3.453,8.361,7.713S264.433,425.139,259.816,425.139Z" transform="translate(-147.38 -409.712)" fill="#cbcbcb"/>
    </g>
    <path id="XMLID_1998_" d="M276.337,229.688H8.361c-4.617,0-8.361-3.453-8.361-7.713V79.929c0-4.26,3.743-7.713,8.361-7.713H276.337c4.617,0,8.361,3.453,8.361,7.713V221.974C284.7,226.234,280.955,229.688,276.337,229.688ZM16.722,214.261H267.977V87.643H16.722Z" fill="#f0f0f0"/>
    <g id="XMLID_75_" transform="translate(142.349 245.35)">
      <path id="XMLID_2006_" d="M308.038,409.712H256v15.427h52.038c4.617,0,8.361-3.453,8.361-7.713s-3.743-7.713-8.361-7.713Z" transform="translate(-256 -409.712)" fill="#f0f0f0"/>
    </g>
    <path id="XMLID_2008_" d="M389.988,72.216H256V87.643H381.628V214.261H256v15.427H389.988c4.617,0,8.361-3.453,8.361-7.713V79.929c0-4.26-3.743-7.713-8.361-7.713Z" transform="translate(-113.651)" fill="#cbcbcb"/>
  </g>
</svg>
