<svg id="vestir" xmlns="http://www.w3.org/2000/svg" width="376" height="504" viewBox="0 0 376 504">
  <g id="Grupo_43" data-name="Grupo 43">
    <path id="Caminho_117" data-name="Caminho 117" d="M179.121,152a11.813,11.813,0,0,0,0,16H128V152Zm0,0" fill="#e6e9ed"/>
    <path id="Caminho_118" data-name="Caminho 118" d="M248,152v16H196.879s.082,0,0-.078a11.614,11.614,0,0,0,0-15.844l.082-.078Zm0,0" fill="#e6e9ed"/>
    <path id="Caminho_119" data-name="Caminho 119" d="M12,421.359C12.559,422,73.359,488,188,488c114.719,0,175.52-66,176.078-66.641L370,414.32c3.922,11.2,6,17.68,6,17.68s-64,72-188,72S0,432,0,432s2.078-6.48,6-17.68Zm0,0" fill="#e6e9ed"/>
  </g>
  <path id="Caminho_120" data-name="Caminho 120" d="M144,0h88V4a43.975,43.975,0,0,1-44,44A44.027,44.027,0,0,1,144,4Zm0,0" fill="#ec87c0"/>
  <path id="Caminho_121" data-name="Caminho 121" d="M144,0h88V4a43.975,43.975,0,0,1-44,44A44.027,44.027,0,0,1,144,4Zm0,0" fill="#d770ad"/>
  <path id="Caminho_122" data-name="Caminho 122" d="M179.121,152A11.709,11.709,0,0,1,188,148a11.559,11.559,0,0,1,8.879,4.078,11.614,11.614,0,0,1,0,15.844c.082.078,0,.078,0,.078a11.952,11.952,0,1,1-17.758-16Zm0,0" fill="#ffce54"/>
  <path id="Caminho_123" data-name="Caminho 123" d="M144,0V4a44.027,44.027,0,0,0,44,44A43.975,43.975,0,0,0,232,4V0h48.078a16,16,0,0,1,16,16V64a8.023,8.023,0,0,1-8,8H261.121L248,152.008V152H196.961l-.082.078A11.559,11.559,0,0,0,188,148a11.709,11.709,0,0,0-8.879,4H128v.008L114.879,72H88a8.026,8.026,0,0,1-8-8V16A16,16,0,0,1,96,0Zm0,0" fill="#ec87c0"/>
  <path id="Caminho_124" data-name="Caminho 124" d="M188,488C73.359,488,12.559,422,12,421.359L6,414.32c15.2-43.039,58.48-163.77,122-246.328V168h51.121a11.854,11.854,0,0,0,17.758,0H248v-.008c63.52,82.559,106.8,203.289,122,246.328l-5.922,7.039C363.52,422,302.719,488,188,488Zm0,0" fill="#ec87c0"/>
  <path id="Caminho_125" data-name="Caminho 125" d="M188,459.984a4,4,0,0,1-4-4V200a4,4,0,1,1,8,0V455.984A4,4,0,0,1,188,459.984Zm0,0" fill="#d770ad"/>
  <path id="Caminho_126" data-name="Caminho 126" d="M76,431.672a3.839,3.839,0,0,1-.594-.047,3.991,3.991,0,0,1-3.367-4.535C72.2,426,88.777,317.465,144.375,198.3a4,4,0,0,1,7.25,3.391C96.5,319.8,80.113,427.192,79.945,428.259A4,4,0,0,1,76,431.673Zm0,0" fill="#d770ad"/>
  <path id="Caminho_127" data-name="Caminho 127" d="M300,431.672a4,4,0,0,1-3.945-3.414c-.168-1.074-16.59-108.523-71.68-226.563a4,4,0,1,1,7.25-3.391c55.6,119.16,72.176,227.7,72.336,228.785a3.986,3.986,0,0,1-3.367,4.535,3.839,3.839,0,0,1-.594.047Zm0,0" fill="#d770ad"/>
</svg>
