<svg xmlns="http://www.w3.org/2000/svg" width="432.292" height="242.135" viewBox="0 0 432.292 242.135">
  <g id="Grupo_109" data-name="Grupo 109" transform="translate(-20638.454 -524.364)">
    <g id="Grupo_110" data-name="Grupo 110" transform="translate(1035 -946)">
      <g id="Heartbroken-bro" transform="translate(19569.6 1282.823)">
        <g id="freepik--Character--inject-31">
          <line id="Linha_50" data-name="Linha 50" x1="431.2" transform="translate(34.4 417.46)" fill="none" stroke="#263238" stroke-linecap="round" stroke-linejoin="round" stroke-width="1.092"/>
          <path id="Caminho_788" data-name="Caminho 788" d="M176.19,307.06H279.84a14.85,14.85,0,0,1,14.85,14.85v95.56H161.35V321.9a14.85,14.85,0,0,1,14.84-14.84Z" fill="#263238" stroke="#263238" stroke-miterlimit="10" stroke-width="1.092"/>
          <path id="Caminho_789" data-name="Caminho 789" d="M168,307.06H271.61a14.85,14.85,0,0,1,14.85,14.85v95.56H153.12V321.9A14.85,14.85,0,0,1,168,307.06Z" fill="#787878" stroke="#263238" stroke-miterlimit="10" stroke-width="1.092"/>
          <path id="Caminho_790" data-name="Caminho 790" d="M196.72,229.69s-12.64-3.3-11.27-16.22,11.27-17.32,18.7-18.7,18.15-1.37,18.15-1.37-2.2-4.4,6.32-5.23,32.17,7.43,41.52,24.2,7.42,44.54,3.3,53.62-8,27.77-.28,34.09,22.28,13.2,20.08,30.8S271.79,349,272.61,358.37s19.25,16.23,14.58,32.45-32.17,18.7-50.87,8.25-14.3-44.27-20.07-63S188.47,314.38,185.17,299s8-23.1,13.48-36S196.72,229.69,196.72,229.69Z" fill="#263238" stroke="#263238" stroke-linecap="round" stroke-linejoin="round" stroke-width="1.092"/>
          <path id="Caminho_791" data-name="Caminho 791" d="M222.3,193.4s-35.35-2.38-48,15.08" fill="none" stroke="#263238" stroke-linecap="round" stroke-linejoin="round" stroke-width="1.092"/>
          <path id="Caminho_792" data-name="Caminho 792" d="M262.91,203.68s21.83,16.59,22.7,41.91-10,34-11.79,45.4,7.43,17.89,7.43,17.89" fill="none" stroke="#263238" stroke-linecap="round" stroke-linejoin="round" stroke-width="1.092"/>
          <path id="Caminho_793" data-name="Caminho 793" d="M266.84,209.35s18.77,17,21.83,40.6,0,26.63,0,26.63" fill="none" stroke="#263238" stroke-linecap="round" stroke-linejoin="round" stroke-width="1.092"/>
          <path id="Caminho_794" data-name="Caminho 794" d="M132.93,355.35s-11.55,17.6-14.3,24.47-2.47,12.37,4.68,14S141.46,387,145,383.12s10.17-15.95,10.17-15.95Z" fill="#f6d3c2" stroke="#263238" stroke-linecap="round" stroke-linejoin="round" stroke-width="1.092"/>
          <path id="Caminho_795" data-name="Caminho 795" d="M208,295.68s-28.6-.27-36,2.2-42.9,57.19-42.9,57.19l24.75,16.23,10.72-11.83s3,15.13,3,20.08-3.58,38-3.58,38h82.49s1.38-30.85,6-39.37,11-20.07,11-20.07l23.37,15.12L301.48,338S264.36,308.61,255,304.48,208,295.68,208,295.68Z" fill="#e600ff" stroke="#263238" stroke-linecap="round" stroke-linejoin="round" stroke-width="1.092"/>
          <path id="Caminho_796" data-name="Caminho 796" d="M164.55,359.47s1-8.85,2.25-17.1,6.34-18.4,6.34-18.4" fill="none" stroke="#263238" stroke-linecap="round" stroke-linejoin="round" stroke-width="1.092"/>
          <line id="Linha_51" data-name="Linha 51" x1="14.24" y1="8.11" transform="translate(249.3 349.99)" fill="none" stroke="#263238" stroke-linecap="round" stroke-linejoin="round" stroke-width="1.092"/>
          <path id="Caminho_797" data-name="Caminho 797" d="M260.72,357.61S248,356.34,243,354.43" fill="none" stroke="#263238" stroke-linecap="round" stroke-linejoin="round" stroke-width="1.092"/>
          <path id="Caminho_798" data-name="Caminho 798" d="M172.07,346.23l48.73,82.9,1.96-1.12,3.65-75.62Z" fill="#263238" stroke="#263238" stroke-linecap="round" stroke-linejoin="round" stroke-width="1.092"/>
          <path id="Caminho_799" data-name="Caminho 799" d="M170.11,346.23l-3.92,73.94,54.61,8.96,3.64-76.74Z" fill="#575757" stroke="#263238" stroke-linecap="round" stroke-linejoin="round" stroke-width="1.092"/>
          <path id="Caminho_801" data-name="Caminho 801" d="M208,295.68s-7.34-.07-15.54.18a130.381,130.381,0,0,0-.69,24.29c1.1,13.2,3.85,15.13,11.28,12.93s22.54-20.9,26.94-27.5a46,46,0,0,0,3.55-6.13C220.94,297.29,208,295.68,208,295.68Z" fill="#f0f0f0" stroke="#263238" stroke-linecap="round" stroke-linejoin="round" stroke-width="1.092"/>
          <path id="Caminho_802" data-name="Caminho 802" d="M197.82,281.66s-1.47,34.1-1.2,38.5,6.43,9.07,10.83,5.77,17.63-23.13,19-26.71,3-19.76,3-19.76-11.82,7.15-19.79,6.32S197.82,281.66,197.82,281.66Z" fill="#f6d3c2" stroke="#263238" stroke-linecap="round" stroke-linejoin="round" stroke-width="1.092"/>
          <line id="Linha_52" data-name="Linha 52" x1="14.57" y1="3.3" transform="translate(224.77 369.92)" fill="none" stroke="#263238" stroke-linecap="round" stroke-linejoin="round" stroke-width="1.092"/>
          <path id="Caminho_804" data-name="Caminho 804" d="M186.62,234.8s-8-4.66-9.32,0S186.62,234.8,186.62,234.8Z" fill="#15ccd2" stroke="#263238" stroke-linecap="round" stroke-linejoin="round" stroke-width="1.092"/>
          <path id="Caminho_805" data-name="Caminho 805" d="M185.62,238.8s-7,5.32-3,5.66S185.62,238.8,185.62,238.8Z" fill="#15ccd2" stroke="#263238" stroke-linecap="round" stroke-linejoin="round" stroke-width="1.092"/>
          <path id="Caminho_806" data-name="Caminho 806" d="M229.62,212.45s-33.76,11.09-34.24,14-9.64,25.08-7.71,40.51,13.84,21.79,24.45,22.69c12.92,1.1,26.67-16.22,26.67-16.22s7.14-2.75,11-4.67,4.34-7.24,4.34-7.24-9.56-7.1-17.76-21.08a50.43,50.43,0,0,1-6.75-27.99Z" fill="#f6d3c2" stroke="#263238" stroke-linecap="round" stroke-linejoin="round" stroke-width="1.092"/>
          <path id="Caminho_807" data-name="Caminho 807" d="M212.74,232.7a16.64,16.64,0,0,1-2.41,9.64,13,13,0,0,1-7.23,5.31s.48,5.3,4.34,5.3" fill="none" stroke="#263238" stroke-linecap="round" stroke-linejoin="round" stroke-width="1.092"/>
          <path id="Caminho_808" data-name="Caminho 808" d="M198.1,239s3.85-3.85,9.35.82" fill="none" stroke="#263238" stroke-linecap="round" stroke-linejoin="round" stroke-width="2.184"/>
          <path id="Caminho_809" data-name="Caminho 809" d="M220.37,243.44s7.7-.83,9.62,4.4" fill="none" stroke="#263238" stroke-linecap="round" stroke-linejoin="round" stroke-width="2.184"/>
          <path id="Caminho_810" data-name="Caminho 810" d="M209.65,259.66s-6.05-2.2-11,1.1-6.05,8.53-3.3,10.18,7.42-5.23,10.72-1.1,8.8,10.72,11,4.39S214.05,260.76,209.65,259.66Z" fill="#263238" stroke="#263238" stroke-linecap="round" stroke-linejoin="round" stroke-width="1.092"/>
          <path id="Caminho_811" data-name="Caminho 811" d="M206.8,270.74c3.33,4.09,8.23,9.37,10.27,3.49a8.85,8.85,0,0,0,.42-1.87C214.06,272,210.34,271.43,206.8,270.74Z" fill="#fff" stroke="#263238" stroke-linecap="round" stroke-linejoin="round" stroke-width="1.092"/>
          <path id="Caminho_812" data-name="Caminho 812" d="M214.6,263.21a10,10,0,0,0-4.95-3.55s-5.55-2-10.37.73a101.524,101.524,0,0,0,15.32,2.82Z" fill="#fff" stroke="#263238" stroke-linecap="round" stroke-linejoin="round" stroke-width="1.092"/>
          <path id="Caminho_821" data-name="Caminho 821" d="M235.77,265.71s3.57-9.62,5.5-12.92" fill="none" stroke="#263238" stroke-linecap="round" stroke-linejoin="round" stroke-width="1.092"/>
          <path id="Caminho_813" data-name="Caminho 813" d="M193.89,267.74a3.31,3.31,0,0,0,1.46,3.2c1.4.83,3.29-.53,5.25-1.53C197.87,268.78,195.52,268.17,193.89,267.74Z" fill="#fff" stroke="#263238" stroke-linecap="round" stroke-linejoin="round" stroke-width="1.092"/>
          <path id="Caminho_814" data-name="Caminho 814" d="M211.59,230.21s-.31-1.89-4.39-1.89-10.68,5-10.68,5" fill="none" stroke="#263238" stroke-linecap="round" stroke-linejoin="round" stroke-width="1.092"/>
          <path id="Caminho_815" data-name="Caminho 815" d="M220.71,232.09s3.14-3.14,6.28.63a36,36,0,0,1,5,8.48" fill="none" stroke="#263238" stroke-linecap="round" stroke-linejoin="round" stroke-width="1.092"/>
          <path id="Caminho_816" data-name="Caminho 816" d="M239.62,247.56c-21.11-13.3-10-35.11-10-35.11s-21,18-34.24,14" fill="none" stroke="#263238" stroke-linecap="round" stroke-linejoin="round" stroke-width="1.092"/>
          <path id="Caminho_817" data-name="Caminho 817" d="M234.67,261.86s-3,3.58-3,5.5,6.05,9.9,8.53,6.6-.83-5.77-1.93-9.07S234.67,261.86,234.67,261.86Z" fill="#f6d3c2" stroke="#263238" stroke-linecap="round" stroke-linejoin="round" stroke-width="1.092"/>
          <path id="Caminho_818" data-name="Caminho 818" d="M274.54,260.76s-19-9.07-25.3-12.37-9.62-.83-9.62-.83-11.28,9.63-10.73,11.28,6.88,6.87,6.88,6.87,3.85,5.5,8.52,6.88,11.55,3.29,12.93,1.09,0-5.49,0-5.49,3.84,3.3,6.32,3.85,7.7,0,7.7,0,10.45,67.36,10.45,77.53,4.4,20.9,12.1,23.38,16.49-3.3,18.14-11.55.83-17.32-4.12-27.5-23.37-56.9-26.95-63.51S276.74,262.41,274.54,260.76Z" fill="#f6d3c2" stroke="#263238" stroke-linecap="round" stroke-linejoin="round" stroke-width="1.092"/>
          <path id="Caminho_819" data-name="Caminho 819" d="M246.77,273.41s3.57-9.62,4.95-11.82" fill="none" stroke="#263238" stroke-linecap="round" stroke-linejoin="round" stroke-width="1.092"/>
          <path id="Caminho_820" data-name="Caminho 820" d="M240.72,270.39S245.39,258,247,255.81" fill="none" stroke="#263238" stroke-linecap="round" stroke-linejoin="round" stroke-width="1.092"/>
          <path id="Caminho_803" data-name="Caminho 803" d="M123.58,373.5c-4.12,5.22-8.52,11.82-7.15,16.77s8,7.15,22.55,6.87,55,.83,55.82,1.1,29.69,3,30.79,3,7.15-2.48,8.8-4.68,3-10.72,3-10.72,4.12-4.12,4.4-7.42a6.21,6.21,0,0,0-2.48-5.23,22,22,0,0,0-.82-5.22c-.83-3-6.88-1.65-10.18-2.2s-8.24-1.65-10.17.27-17.87,15.68-17.87,15.68-24.75-1.93-40.42-7.7-24.47-6.88-30.8-.83" fill="#f6d3c2" stroke="#263238" stroke-linecap="round" stroke-linejoin="round" stroke-width="1.092"/>
        </g>
      </g>
      <g id="apple" transform="translate(19723.971 1643)">
        <path id="Caminho_822" data-name="Caminho 822" d="M208.7,17l-1-.13a2.5,2.5,0,0,0-1.268-2.633l.5-.761A3.335,3.335,0,0,1,208.7,17Z" transform="translate(-167.568 -13.078)" fill="#c27b48"/>
        <path id="Caminho_823" data-name="Caminho 823" d="M247.387,1.115c-.356.279-1.894,1.932-3.477,1.651a1.908,1.908,0,0,1-1.369-1.018l-.041-.091a1.7,1.7,0,0,1,1-1.491c.808-.356,1.938-.135,3.359.657Z" transform="translate(-202.424 0)" fill="#11a892"/>
        <path id="Caminho_824" data-name="Caminho 824" d="M45.9,112.581a9.179,9.179,0,0,1-2.029,1.6,3.61,3.61,0,0,1-1.723.606h0a4.146,4.146,0,0,1-1.616-.343,4.146,4.146,0,0,1-1.616.343h0a3.61,3.61,0,0,1-1.723-.606,9.17,9.17,0,0,1-2.029-1.6,6.566,6.566,0,0,1-1.594-7.338,4.274,4.274,0,0,1,3.858-2.438,8.347,8.347,0,0,1,1.633.125c.211.035.417.086.617.135a4.885,4.885,0,0,0,.692.139H40.7a4.884,4.884,0,0,0,.692-.139c.2-.05.406-.1.617-.135a8.345,8.345,0,0,1,1.632-.125,4.274,4.274,0,0,1,3.858,2.438A6.566,6.566,0,0,1,45.9,112.581Z" transform="translate(0 -99.79)" fill="#ff475a"/>
        <path id="Caminho_825" data-name="Caminho 825" d="M247.387,38.056c-.356.279-1.894,1.932-3.477,1.651a1.908,1.908,0,0,1-1.369-1.018L242.5,38.6Z" transform="translate(-202.424 -36.941)" fill="#0f9887"/>
        <path id="Caminho_826" data-name="Caminho 826" d="M261.374,112.582a9.178,9.178,0,0,1-2.029,1.6,3.61,3.61,0,0,1-1.723.606h0a4.146,4.146,0,0,1-1.616-.343V103.205h.168a4.882,4.882,0,0,0,.692-.139c.2-.049.406-.1.617-.135a8.345,8.345,0,0,1,1.632-.125,4.274,4.274,0,0,1,3.858,2.438A6.566,6.566,0,0,1,261.374,112.582Z" transform="translate(-215.471 -99.791)" fill="#e5104d"/>
      </g>
    </g>
  </g>
</svg>
