<svg xmlns="http://www.w3.org/2000/svg" width="512" height="367.568" viewBox="0 0 512 367.568">
  <g id="XMLID_52_" transform="translate(0 -72.216)">
    <path id="XMLID_1995_" d="M293.984,349.108H218.015a15.036,15.036,0,0,0-15.036,15.036v57.6a15.036,15.036,0,0,0,15.036,15.036h75.969a15.036,15.036,0,0,0,15.036-15.036v-57.6A15.036,15.036,0,0,0,293.984,349.108Z" fill="#07485e"/>
    <g id="XMLID_2000_">
      <path id="XMLID_2001_" d="M15.036,87.252H496.965V364.144H15.036Z" fill="#90dffa"/>
    </g>
    <g id="XMLID_88_">
      <path id="XMLID_2003_" d="M293.984,349.108H256v87.667h37.984a15.036,15.036,0,0,0,15.036-15.036v-57.6a15.036,15.036,0,0,0-15.036-15.036Z" fill="#04303e"/>
    </g>
    <g id="Grupo_41" data-name="Grupo 41">
      <path id="XMLID_2007_" d="M256,87.252H496.965V364.144H256Z" fill="#60d1f7"/>
    </g>
    <g id="XMLID_1996_">
      <path id="XMLID_1997_" d="M349.584,439.784H162.416a15.036,15.036,0,0,1,0-30.072H349.584a15.036,15.036,0,0,1,0,30.072Z" fill="#09607d"/>
    </g>
    <path id="XMLID_1998_" d="M496.964,379.18H15.036A15.036,15.036,0,0,1,0,364.144V87.252A15.036,15.036,0,0,1,15.036,72.216H496.964A15.036,15.036,0,0,1,512,87.252V364.144A15.036,15.036,0,0,1,496.964,379.18ZM30.072,349.108H481.928V102.288H30.072Z" fill="#09607d"/>
    <g id="XMLID_75_">
      <path id="XMLID_2006_" d="M349.584,409.712H256v30.072h93.584a15.036,15.036,0,0,0,0-30.072Z" fill="#07485e"/>
    </g>
    <path id="XMLID_2008_" d="M496.964,72.216H256v30.072H481.928v246.82H256V379.18H496.964A15.036,15.036,0,0,0,512,364.144V87.252a15.036,15.036,0,0,0-15.036-15.036Z" fill="#07485e"/>
  </g>
</svg>
