<svg xmlns="http://www.w3.org/2000/svg" width="100" height="200" viewBox="0 0 100 200">
  <g id="smartphone" transform="translate(-0.5)">
    <path id="Caminho_136" data-name="Caminho 136" d="M102.644,195.169a6.212,6.212,0,0,1-5.915,6.471H13.915A6.212,6.212,0,0,1,8,195.169V13.971A6.212,6.212,0,0,1,13.915,7.5H96.729a6.212,6.212,0,0,1,5.915,6.471Zm0,0" transform="translate(-4.822 -4.57)" fill="#40374e"/>
    <path id="Caminho_138" data-name="Caminho 138" d="M8,57.2h94.644V212.512H8Zm0,0" transform="translate(-4.822 -34.856)" fill="#f0f0f0"/>
    <path id="Caminho_140" data-name="Caminho 140" d="M100.5,22.343V9.4c0-5.183-3.855-9.4-8.593-9.4H9.093C4.355,0,.5,4.218.5,9.4V190.6c0,5.183,3.855,9.4,8.593,9.4H91.907c4.738,0,8.593-4.218,8.593-9.4V22.345ZM9.093,5.859H91.907A3.4,3.4,0,0,1,95.144,9.4V19.414H5.856V9.4A3.4,3.4,0,0,1,9.093,5.859ZM91.907,194.141H9.093A3.4,3.4,0,0,1,5.856,190.6V180.586H20.923a2.942,2.942,0,0,0,0-5.859H5.856V25.273H95.144V174.727H31.635a2.942,2.942,0,0,0,0,5.859H95.144V190.6A3.4,3.4,0,0,1,91.907,194.141Zm0,0"/>
    <path id="Caminho_141" data-name="Caminho 141" d="M130.976,472.148H119.147a2.942,2.942,0,0,0,0,5.859h11.829a2.942,2.942,0,0,0,0-5.859Zm0,0" transform="translate(-74.561 -287.715)"/>
    <path id="Caminho_142" data-name="Caminho 142" d="M102.576,30.711h23.662a2.942,2.942,0,0,0,0-5.859H102.576a2.942,2.942,0,0,0,0,5.859Zm0,0" transform="translate(-63.907 -15.144)"/>
    <path id="Caminho_143" data-name="Caminho 143" d="M61.162,30.711h5.915a2.942,2.942,0,0,0,0-5.859H61.162a2.942,2.942,0,0,0,0,5.859Zm0,0" transform="translate(-37.281 -15.144)"/>
    <path id="Caminho_144" data-name="Caminho 144" d="M36.311,159.622a2.812,2.812,0,0,0,2.678-2.93V146.68h9.152a2.942,2.942,0,0,0,0-5.859H36.311a2.812,2.812,0,0,0-2.678,2.93v12.943A2.813,2.813,0,0,0,36.311,159.622Zm0,0" transform="translate(-21.302 -85.812)"/>
    <path id="Caminho_145" data-name="Caminho 145" d="M201.979,146.68h9.152v10.013a2.689,2.689,0,1,0,5.356,0V143.75a2.812,2.812,0,0,0-2.678-2.93h-11.83a2.942,2.942,0,0,0,0,5.859Zm0,0" transform="translate(-127.817 -85.812)"/>
    <path id="Caminho_146" data-name="Caminho 146" d="M213.809,323.051a2.811,2.811,0,0,0-2.678,2.93v10.013h-9.152a2.942,2.942,0,0,0,0,5.859h11.83a2.813,2.813,0,0,0,2.678-2.93V325.98A2.812,2.812,0,0,0,213.809,323.051Zm0,0" transform="translate(-127.817 -196.859)"/>
    <path id="Caminho_147" data-name="Caminho 147" d="M48.141,335.993H38.989V325.98a2.689,2.689,0,1,0-5.356,0v12.943a2.813,2.813,0,0,0,2.678,2.93h11.83a2.942,2.942,0,0,0,0-5.859Zm0,0" transform="translate(-21.302 -196.859)"/>
    <path id="Caminho_148" data-name="Caminho 148" d="M125.062,250.735c4.738,0,8.593-4.216,8.593-9.4s-3.855-9.4-8.593-9.4-8.593,4.218-8.593,9.4S120.322,250.735,125.062,250.735Zm0-12.943a3.556,3.556,0,1,1-3.237,3.543A3.4,3.4,0,0,1,125.062,237.793Zm0,0" transform="translate(-74.561 -141.335)"/>
    <path id="Caminho_149" data-name="Caminho 149" d="M135.713,194.565a2.813,2.813,0,0,0,2.678-2.93v-6.471a2.689,2.689,0,1,0-5.356,0v6.471A2.812,2.812,0,0,0,135.713,194.565Zm0,0" transform="translate(-85.212 -111.049)"/>
    <path id="Caminho_150" data-name="Caminho 150" d="M67.113,250.395a2.812,2.812,0,0,0,2.678,2.93h5.915a2.942,2.942,0,0,0,0-5.859H69.791A2.812,2.812,0,0,0,67.113,250.395Zm0,0" transform="translate(-42.828 -150.799)"/>
    <path id="Caminho_151" data-name="Caminho 151" d="M135.022,296.82a2.812,2.812,0,0,0-2.678,2.93v6.471a2.689,2.689,0,1,0,5.356,0V299.75A2.812,2.812,0,0,0,135.022,296.82Zm0,0" transform="translate(-84.768 -180.875)"/>
    <path id="Caminho_152" data-name="Caminho 152" d="M184.377,254.016h5.915a2.942,2.942,0,0,0,0-5.859h-5.915a2.942,2.942,0,0,0,0,5.859Zm0,0" transform="translate(-116.501 -151.22)"/>
  </g>
</svg>
