<svg xmlns="http://www.w3.org/2000/svg" width="105" height="50" viewBox="0 0 105 50">
  <g id="cancel" transform="translate(0 0)">
    <g id="Grupo_16" data-name="Grupo 16" transform="translate(0 0)">
      <path id="Caminho_9" data-name="Caminho 9" d="M54.9,24.995,104.5,1.376c.661-.315.661-.825,0-1.14a3.153,3.153,0,0,0-2.394,0L52.51,23.855,2.911.236A3.152,3.152,0,0,0,.517.256c-.634.312-.634.808,0,1.12l49.6,23.619L.517,48.614c-.673.309-.691.82-.041,1.14a3.152,3.152,0,0,0,2.394.02l.041-.02,49.6-23.619,49.6,23.619a3.152,3.152,0,0,0,2.394-.02c.634-.312.634-.808,0-1.12Z" transform="translate(0 0)" fill="#f0f0f0"/>
    </g>
  </g>
</svg>
