<svg xmlns="http://www.w3.org/2000/svg" width="40" height="15" viewBox="0 0 40 15">
  <g id="cancel" transform="translate(0 0)">
    <g id="Grupo_16" data-name="Grupo 16" transform="translate(0 0)">
      <path id="Caminho_9" data-name="Caminho 9" d="M20.916,7.5,39.811.413c.252-.094.252-.248,0-.342a1.5,1.5,0,0,0-.912,0L20,7.156,1.109.071A1.5,1.5,0,0,0,.2.077C-.045.17-.045.319.2.413L19.092,7.5.2,14.584c-.256.093-.263.246-.016.342a1.5,1.5,0,0,0,.912.006l.016-.006L20,7.84l18.9,7.086a1.5,1.5,0,0,0,.912-.006c.241-.094.241-.242,0-.336Z" transform="translate(0 0)" fill="#f0f0f0"/>
    </g>
  </g>
</svg>
