<svg xmlns="http://www.w3.org/2000/svg" width="40" height="70" viewBox="0 0 40 70">
  <g id="gravador-de-voz" transform="translate(-24.292 -19)">
    <path id="Caminho_15" data-name="Caminho 15" d="M149.292,31.53a3.067,3.067,0,1,0-6.135,0,13.924,13.924,0,0,1-10.116,13.388V42.052a12.273,12.273,0,0,0,8.476-11.67h0V12.261a12.2,12.2,0,0,0-2.184-6.987,1.023,1.023,0,1,0-1.678,1.171,10.153,10.153,0,0,1,1.816,5.717h-6.809a1.025,1.025,0,0,0,0,2.051h6.811v2.823h-6.811a1.025,1.025,0,0,0,0,2.051h6.811v2.823h-6.811a1.025,1.025,0,0,0,0,2.051h6.811v2.6H119.112v-2.6h6.811a1.025,1.025,0,0,0,0-2.051h-6.811V19.086h6.811a1.025,1.025,0,0,0,0-2.051h-6.811V14.213h6.811a1.025,1.025,0,0,0,0-2.051h-6.809a10.169,10.169,0,0,1,15.4-8.666,1.025,1.025,0,0,0,1.052-1.759,12.215,12.215,0,0,0-18.494,10.523V30.382h0a12.273,12.273,0,0,0,8.476,11.67v2.867A13.924,13.924,0,0,1,115.427,31.53a3.067,3.067,0,1,0-6.135,0,20.075,20.075,0,0,0,16.251,19.7v2.541a1.022,1.022,0,1,0,2.045,0V51.515a20.148,20.148,0,0,0,3.408,0v9.813h-3.408V58.559a1.022,1.022,0,1,0-2.045,0v2.769h-2.479a4.336,4.336,0,0,0,0,8.672h12.457a4.336,4.336,0,0,0,0-8.672h-2.479v-10.1a20.075,20.075,0,0,0,16.251-19.7Zm-28.7,4.141c-1.662-2.74-1.476-5.037-1.476-7.061h20.361c0,2,.192,4.312-1.476,7.061a10.163,10.163,0,0,1-17.409,0ZM131,42.522V45.33a13.965,13.965,0,0,1-3.408,0V42.522A12.248,12.248,0,0,0,131,42.522Zm4.524,20.856a2.285,2.285,0,0,1,0,4.57H123.064a2.285,2.285,0,0,1,0-4.57Zm-8.807-14.028a18.017,18.017,0,0,1-15.376-17.82,1.022,1.022,0,1,1,2.045,0,15.91,15.91,0,1,0,31.82,0,1.022,1.022,0,1,1,2.045,0A17.992,17.992,0,0,1,126.713,49.351Z" transform="translate(-85 19)" fill="#25212c"/>
  </g>
</svg>
