<svg xmlns="http://www.w3.org/2000/svg" width="120" height="120" viewBox="0 0 120 120">
  <g id="Grupo_46" data-name="Grupo 46" transform="translate(-947.221 -587.118)">
    <ellipse id="Elipse_2" data-name="Elipse 2" cx="58.576" cy="58.672" rx="58.576" ry="58.672" transform="translate(948.681 588.537)" fill="#125112"/>
    <g id="quebrado" transform="translate(928.6 653.337) rotate(-45)">
      <g id="Grupo_18" data-name="Grupo 18" transform="translate(27.806 6.952)">
        <g id="Grupo_17" data-name="Grupo 17" transform="translate(0 0)">
          <path id="Caminho_12" data-name="Caminho 12" d="M76.39,39.892,49.4,12.906a3.848,3.848,0,0,0-5.438.037L12.928,43.853a3.91,3.91,0,0,0-1.155,2.733A3.789,3.789,0,0,0,12.879,49.3l6.747,6.747a3.88,3.88,0,0,0,5.487-5.486l-4.042-4.042L46.611,21.087l21.6,21.6L42.773,68.224l-4.04-4.04a3.88,3.88,0,0,0-5.486,5.486l6.747,6.747a3.784,3.784,0,0,0,2.713,1.106h0a3.918,3.918,0,0,0,2.733-1.155L76.353,45.33A3.849,3.849,0,0,0,76.39,39.892Z" fill="#25212c"/>
        </g>
      </g>
      <g id="Grupo_20" data-name="Grupo 20" transform="translate(1.668 6.673)">
        <g id="Grupo_19" data-name="Grupo 19">
          <path id="Caminho_13" data-name="Caminho 13" d="M76.417,39.994,69.67,33.247a3.88,3.88,0,0,0-5.487,5.486l4.04,4.042L42.683,68.209l-21.6-21.6L46.519,21.072l4.042,4.04a3.881,3.881,0,0,0,5.487-5.487L49.3,12.878a3.79,3.79,0,0,0-2.713-1.105h0a3.912,3.912,0,0,0-2.733,1.155L12.942,43.966a3.85,3.85,0,0,0-.037,5.438L39.892,76.39A3.773,3.773,0,0,0,42.6,77.5a3.9,3.9,0,0,0,2.727-1.143L76.369,45.443a3.91,3.91,0,0,0,1.155-2.733A3.788,3.788,0,0,0,76.417,39.994Z" fill="#f0f0f0"/>
        </g>
      </g>
    </g>
    <g id="Caminho_14" data-name="Caminho 14" transform="translate(947.221 587.118)" fill="rgba(255,255,255,0)">
      <path d="M 59.99998474121094 119.75 C 51.93367767333984 119.75 44.10878372192383 118.1702575683594 36.74267578125 115.0546417236328 C 33.20229339599609 113.5571975708008 29.78756904602051 111.7037353515625 26.59336853027344 109.545783996582 C 23.42946243286133 107.4082717895508 20.45423126220703 104.9534912109375 17.75037002563477 102.249626159668 C 15.04649257659912 99.54575347900391 12.59170818328857 96.57053375244141 10.45421504974365 93.40660858154297 C 8.296246528625488 90.21240997314453 6.442800045013428 86.79769134521484 4.945353984832764 83.25731658935547 C 1.829738616943359 75.89119720458984 0.2500001192092896 68.06630706787109 0.2500001192092896 59.99999618530273 C 0.2500001192092896 51.93368911743164 1.829738616943359 44.10879516601563 4.945353984832764 36.74267196655273 C 6.442800045013428 33.20230484008789 8.296246528625488 29.7875804901123 10.45421504974365 26.59337997436523 C 12.59170818328857 23.42945861816406 15.04649257659912 20.45424270629883 17.75037002563477 17.7503662109375 C 20.45423126220703 15.04650402069092 23.42946243286133 12.59171962738037 26.59336853027344 10.45421123504639 C 29.78756904602051 8.296257972717285 33.20229339599609 6.442796230316162 36.74267578125 4.945350170135498 C 44.10878372192383 1.829734683036804 51.93367767333984 0.2499961853027344 59.99998474121094 0.2499961853027344 C 68.06629180908203 0.2499961853027344 75.89118194580078 1.829734683036804 83.25729370117188 4.945350170135498 C 86.79767608642578 6.442796230316162 90.21240234375 8.296257972717285 93.40660095214844 10.45421123504639 C 96.57051086425781 12.59171962738037 99.54573822021484 15.04650402069092 102.2496032714844 17.7503662109375 C 104.9534759521484 20.45424270629883 107.4082641601563 23.42945861816406 109.5457534790039 26.59337997436523 C 111.7037200927734 29.7875804901123 113.5571670532227 33.20230484008789 115.0546188354492 36.74267196655273 C 118.1702346801758 44.10879516601563 119.7499694824219 51.93368911743164 119.7499694824219 59.99999618530273 C 119.7499694824219 68.06630706787109 118.1702346801758 75.89119720458984 115.0546188354492 83.25731658935547 C 113.5571670532227 86.79769134521484 111.7037200927734 90.21240997314453 109.5457534790039 93.40660858154297 C 107.4082641601563 96.57053375244141 104.9534759521484 99.54575347900391 102.2496032714844 102.249626159668 C 99.54573822021484 104.9534912109375 96.57051086425781 107.4082717895508 93.40660095214844 109.545783996582 C 90.21240234375 111.7037353515625 86.79767608642578 113.5571975708008 83.25729370117188 115.0546417236328 C 75.89118194580078 118.1702575683594 68.06629180908203 119.75 59.99998474121094 119.75 Z" stroke="none"/>
      <path d="M 59.99998474121094 0.4999923706054688 C 51.96732330322266 0.4999923706054688 44.17520141601563 2.073089599609375 36.84006500244141 5.17559814453125 C 33.31455230712891 6.666763305664063 29.91415405273438 8.512443542480469 26.73332214355469 10.66136169433594 C 23.58258819580078 12.78996276855469 20.61976623535156 15.23451995849609 17.92713928222656 17.92714691162109 C 15.23451995849609 20.61976623535156 12.78995513916016 23.58259582519531 10.66136932373047 26.73333740234375 C 8.512443542480469 29.91416168212891 6.666770935058594 33.31455230712891 5.17559814453125 36.84007263183594 C 2.073089599609375 44.17519378662109 0.5 51.96733093261719 0.5 59.99999618530273 C 0.5 68.03265380859375 2.073089599609375 75.82479858398438 5.17559814453125 83.15991973876953 C 6.666770935058594 86.68544006347656 8.512443542480469 90.08583068847656 10.66136932373047 93.26665496826172 C 12.78995513916016 96.41739654541016 15.23451995849609 99.38022613525391 17.92713928222656 102.0728454589844 C 20.61976623535156 104.7654724121094 23.58258819580078 107.2100296020508 26.73332214355469 109.338623046875 C 29.91415405273438 111.487548828125 33.31455230712891 113.3332290649414 36.84006500244141 114.8243942260742 C 44.17520141601563 117.9269027709961 51.96732330322266 119.5 59.99998474121094 119.5 C 68.03264617919922 119.5 75.82476806640625 117.9269027709961 83.159912109375 114.8243942260742 C 86.68541717529297 113.3332290649414 90.0858154296875 111.487548828125 93.26663208007813 109.338623046875 C 96.41737365722656 107.2100296020508 99.38020324707031 104.7654724121094 102.0728149414063 102.0728454589844 C 104.7654495239258 99.38022613525391 107.2099990844727 96.41739654541016 109.3386001586914 93.26665496826172 C 111.4875259399414 90.08583068847656 113.3331985473633 86.68544006347656 114.8243713378906 83.15991973876953 C 117.9268798828125 75.82479858398438 119.4999694824219 68.03265380859375 119.4999694824219 59.99999618530273 C 119.4999694824219 51.96733093261719 117.9268798828125 44.17519378662109 114.8243713378906 36.84007263183594 C 113.3331985473633 33.31455230712891 111.4875259399414 29.91416168212891 109.3386001586914 26.73333740234375 C 107.2099990844727 23.58259582519531 104.7654495239258 20.61976623535156 102.0728149414063 17.92714691162109 C 99.38020324707031 15.23451995849609 96.41737365722656 12.78996276855469 93.26663208007813 10.66136169433594 C 90.0858154296875 8.512443542480469 86.68541717529297 6.666763305664063 83.159912109375 5.17559814453125 C 75.82476806640625 2.073089599609375 68.03264617919922 0.4999923706054688 59.99998474121094 0.4999923706054688 M 59.99998474121094 -7.62939453125e-06 C 93.13704681396484 -7.62939453125e-06 119.9999694824219 26.86292266845703 119.9999694824219 59.99999618530273 C 119.9999694824219 93.13706970214844 93.13704681396484 120 59.99998474121094 120 C 26.86290740966797 120 0 93.13706970214844 0 59.99999618530273 C 0 26.86292266845703 26.86290740966797 -7.62939453125e-06 59.99998474121094 -7.62939453125e-06 Z" stroke="none" fill="#125112"/>
    </g>
  </g>
</svg>
