<svg xmlns="http://www.w3.org/2000/svg" width="105" height="50" viewBox="0 0 105 50">
  <g id="menu" transform="translate(0 -96)">
    <g id="Grupo_2" data-name="Grupo 2" transform="translate(0 96)">
      <g id="Grupo_1" data-name="Grupo 1">
        <path id="Caminho_1" data-name="Caminho 1" d="M102.812,96H2.188a1.729,1.729,0,1,0,0,3.333H102.812a1.729,1.729,0,1,0,0-3.333Z" transform="translate(0 -96)" fill="#25212c"/>
      </g>
    </g>
    <g id="Grupo_4" data-name="Grupo 4" transform="translate(0 119.333)">
      <g id="Grupo_3" data-name="Grupo 3">
        <path id="Caminho_2" data-name="Caminho 2" d="M102.812,245.333H2.188a1.729,1.729,0,1,0,0,3.333H102.812a1.729,1.729,0,1,0,0-3.333Z" transform="translate(0 -245.333)" fill="#25212c"/>
      </g>
    </g>
    <g id="Grupo_6" data-name="Grupo 6" transform="translate(0 142.667)">
      <g id="Grupo_5" data-name="Grupo 5">
        <path id="Caminho_3" data-name="Caminho 3" d="M102.812,394.667H2.188a1.729,1.729,0,1,0,0,3.333H102.812a1.729,1.729,0,1,0,0-3.333Z" transform="translate(0 -394.667)" fill="#25212c"/>
      </g>
    </g>
  </g>
</svg>
